<svg id="Layer_1" data-name="Layer 1" xmlns="http://www.w3.org/2000/svg" xmlns:xlink="http://www.w3.org/1999/xlink" viewBox="0 0 971.16 971.16"><defs><style>.cls-1{stroke:#000091;stroke-width:1px;fill:url(#linear-gradient);}.cls-2{fill:#fff;fill-opacity:0.52;}.cls-3,.cls-4{fill:none;stroke:#fff;stroke-linecap:round;stroke-width:100px;}.cls-3{stroke-miterlimit:10;}.cls-4{stroke-linejoin:round;}</style><linearGradient id="linear-gradient" x1="450.04" y1="549.83" x2="450.04" y2="549.45" gradientTransform="matrix(970.16, 0, 0, -970.16, -436107.33, 534052.84)" gradientUnits="userSpaceOnUse"><stop offset="0" stop-color="#004c91"/><stop offset="1" stop-color="#00d7ff"/></linearGradient></defs><title>shiny_blue_download_icon</title><g id="g3644"><path id="path3632" class="cls-1" d="M985.07,500c0,267.9-217.18,485.08-485.08,485.08S14.91,767.91,14.91,500,232.09,14.93,500,14.93,985.07,232.11,985.07,500Z" transform="translate(-14.41 -14.43)"/><path id="path3642" class="cls-2" d="M30.6,489.87c-0.73,92.46,310.57-74.56,450.13-73,137.34,1.54,488.65,180.66,488.65,56.77,0-171.14-155.59-440.21-464.32-442S32.2,286.7,30.6,489.87Z" transform="translate(-14.41 -14.43)"/></g><line class="cls-3" x1="502.76" y1="193.06" x2="502.76" y2="750.15"/><polyline class="cls-4" points="284.91 535.19 502.76 778.08 720.61 535.19"/></svg>